<?xml version="1.0" standalone="no"?>
<!DOCTYPE svg PUBLIC "-//W3C//DTD SVG 20010904//EN"
 "http://www.w3.org/TR/2001/REC-SVG-20010904/DTD/svg10.dtd">
<svg version="1.0" xmlns="http://www.w3.org/2000/svg"
 width="1024.000000pt" height="480.000000pt" viewBox="0 0 1024.000000 480.000000"
 preserveAspectRatio="xMidYMid meet">

<g transform="translate(0.000000,480.000000) scale(0.100000,-0.100000)"
fill="#000000" stroke="none">
<path d="M6130 2575 l0 -595 40 0 40 0 0 240 c0 135 5 262 11 292 21 103 95
191 187 222 51 18 170 21 221 6 56 -16 106 -57 137 -113 l29 -52 3 -297 3
-298 40 0 39 0 0 284 c0 259 -2 290 -21 351 -27 87 -88 152 -175 184 -50 19
-75 22 -160 19 -92 -3 -107 -6 -170 -38 -50 -25 -78 -48 -104 -83 l-35 -47 -3
260 -2 260 -40 0 -40 0 0 -595z"/>
<path d="M4610 3130 c-25 -25 -25 -51 -2 -80 36 -44 112 -17 112 40 0 55 -70
80 -110 40z"/>
<path d="M3076 3091 c-12 -18 -498 -1077 -503 -1094 -5 -16 0 -18 37 -15 l42
3 232 512 c127 282 233 512 236 512 3 1 110 -231 239 -514 l234 -515 43 0 43
0 -43 93 c-23 50 -139 302 -257 559 l-214 468 -42 0 c-23 0 -44 -4 -47 -9z"/>
<path d="M7230 2910 l0 -90 -75 0 -75 0 0 -35 0 -35 74 0 75 0 3 -312 c3 -298
4 -315 24 -353 27 -49 49 -70 97 -90 47 -20 166 -20 214 0 59 25 65 33 48 66
l-15 28 -38 -22 c-27 -16 -53 -22 -97 -22 -75 0 -109 20 -136 78 -17 38 -19
69 -19 335 l0 292 135 0 135 0 0 35 0 35 -135 0 -135 0 0 90 0 90 -40 0 -40 0
0 -90z"/>
<path d="M3923 2801 c-116 -40 -168 -110 -161 -221 6 -119 71 -170 268 -210
158 -33 203 -47 241 -79 32 -27 34 -33 34 -89 0 -50 -4 -65 -25 -88 -43 -47
-100 -65 -203 -66 -105 -1 -183 18 -264 63 l-52 29 -16 -22 c-24 -35 -19 -43
43 -76 83 -44 161 -62 272 -62 209 0 330 82 330 223 0 128 -61 173 -306 228
-184 41 -230 68 -247 147 -12 54 35 131 93 154 92 36 233 27 336 -21 l61 -29
16 33 16 33 -57 25 c-87 39 -129 47 -232 47 -65 -1 -112 -6 -147 -19z"/>
<path d="M4620 2400 l0 -420 40 0 40 0 0 420 0 420 -40 0 -40 0 0 -420z"/>
<path d="M5219 2802 c-106 -35 -191 -111 -238 -211 -23 -50 -26 -68 -26 -171
0 -110 2 -118 32 -181 124 -252 486 -306 674 -101 l49 54 0 -109 c0 -138 -17
-200 -72 -259 -58 -63 -126 -86 -253 -86 -119 0 -206 24 -285 77 -29 19 -54
35 -56 35 -2 0 -11 -11 -20 -25 -16 -24 -16 -27 2 -46 27 -30 123 -77 197 -96
93 -24 244 -22 333 5 120 37 196 122 223 250 7 34 11 199 11 467 l0 415 -35 0
-35 0 0 -92 0 -92 -50 57 c-35 38 -72 67 -118 89 -60 30 -75 33 -172 35 -80 2
-118 -1 -161 -15z m302 -79 c63 -28 125 -87 157 -147 24 -46 27 -62 27 -156 0
-90 -3 -112 -24 -152 -69 -141 -236 -214 -398 -174 -168 41 -261 169 -251 344
6 102 36 169 100 227 74 66 132 86 248 82 70 -2 107 -9 141 -24z"/>
</g>
</svg>
