<?xml version="1.0" encoding="UTF-8" standalone="no"?>
<svg
   xmlns:dc="http://purl.org/dc/elements/1.1/"
   xmlns:cc="http://creativecommons.org/ns#"
   xmlns:rdf="http://www.w3.org/1999/02/22-rdf-syntax-ns#"
   xmlns:svg="http://www.w3.org/2000/svg"
   xmlns="http://www.w3.org/2000/svg"
   id="svg73628"
   viewBox="0 0 1024 480"
   height="480px"
   width="1024px"
   version="1.1">
  <metadata
     id="metadata73634">
    <rdf:RDF>
      <cc:Work
         rdf:about="">
        <dc:format>image/svg+xml</dc:format>
        <dc:type
           rdf:resource="http://purl.org/dc/dcmitype/StillImage" />
      </cc:Work>
    </rdf:RDF>
  </metadata>
  <defs
     id="defs73632" />
  <style
     id="style73625">
    #title &gt; path {
        fill: #9aafd4;
    }
    .c1{
    fill: #9aafd4;
    }
    .c2{
    fill: #a4bdd8;
    }
    .c3{
    fill: #bdd2e5;
    }
    </style>
  <g
     id="title"
     style="font-style:normal;font-weight:300;font-size:160.66667175px;line-height:1;font-family:'Montserrat Light Alt1';font-variant-ligatures:none;text-align:left;dominant-baseline:middle;text-anchor:middle"
     aria-label="Asight">
    <path
       id="path73636"
       style="font-style:normal;font-weight:300;font-size:160.66667175px;line-height:1;font-family:'Montserrat Light Alt1';font-variant-ligatures:none;text-align:left;dominant-baseline:middle;text-anchor:middle"
       d="m 316.19879,169.46733 h -8.194 L 256.27012,281.934 h 8.83667 L 312.02146,178.46467 359.09679,281.934 h 8.83667 z" />
    <path
       id="path73638"
       style="font-style:normal;font-weight:300;font-size:160.66667175px;line-height:1;font-family:'Montserrat Light Alt1';font-variant-ligatures:none;text-align:left;dominant-baseline:middle;text-anchor:middle"
       d="m 386.7666,279.524 c 6.10534,2.08867 12.532,3.05267 19.28001,3.05267 10.44333,0 18.63733,-2.08867 24.42133,-6.266 5.784,-4.17734 8.676,-9.64 8.676,-16.70934 0,-5.14133 -1.446,-9.31866 -4.17733,-12.37133 -2.892,-2.892 -6.266,-5.14133 -10.28267,-6.42667 -4.01667,-1.28533 -9.31867,-2.57066 -15.74533,-3.856 -5.94467,-1.12466 -10.60401,-2.24933 -13.81734,-3.21333 -3.21333,-0.964 -5.94467,-2.57067 -8.194,-4.65933 -2.24933,-2.08867 -3.374,-4.98067 -3.374,-8.83667 0,-4.65933 1.928,-8.51533 5.94467,-11.40733 3.856,-2.892 9.80066,-4.338 17.67333,-4.338 4.49867,0 8.99734,0.64266 13.496,1.928 4.338,1.28533 8.194,3.21333 11.72867,5.62333 l 3.69533,-6.42667 c -3.374,-2.41 -7.712,-4.338 -12.85333,-5.94466 -5.302,-1.446 -10.604,-2.24934 -15.906,-2.24934 -10.28267,0 -18.15534,2.24934 -23.618,6.58734 -5.46267,4.338 -8.194,9.80066 -8.194,16.388 0,5.46266 1.446,9.80066 4.338,12.85333 2.892,3.21333 6.266,5.46267 10.44333,6.748 4.01667,1.446 9.31867,2.73133 16.06667,3.856 5.62333,1.12467 10.122,2.08867 13.33533,3.05267 3.21334,0.964 5.784,2.57066 8.03334,4.49866 2.24933,2.08867 3.374,4.82 3.374,8.35467 0,4.98067 -2.08867,8.83667 -6.10534,11.568 -4.01666,2.892 -10.28266,4.17734 -18.63733,4.17734 -5.94467,0 -11.568,-0.964 -17.03067,-2.89201 -5.46267,-1.928 -9.80067,-4.338 -13.17467,-7.23 l -3.69533,6.42667 c 3.374,3.21334 8.194,5.784 14.29933,7.712 z" />
    <path
       id="path73640"
       style="font-style:normal;font-weight:300;font-size:160.66667175px;line-height:1;font-family:'Montserrat Light Alt1';font-variant-ligatures:none;text-align:left;dominant-baseline:middle;text-anchor:middle"
       d="m 461.72011,198.066 v 83.868 h 8.03334 v -83.868 z m -0.64266,-22.172 c 1.28533,1.28533 2.73133,1.76733 4.65933,1.76733 1.76733,0 3.374,-0.64266 4.65933,-1.928 1.28534,-1.28533 1.928,-2.73133 1.928,-4.65933 0,-1.76733 -0.64266,-3.21334 -1.928,-4.49867 -1.28533,-1.28533 -2.892,-1.928 -4.65933,-1.928 -1.928,0 -3.374,0.64267 -4.65933,1.928 -1.28534,1.28533 -1.928,2.892 -1.928,4.65934 0,1.928 0.64266,3.374 1.928,4.65933 z" />
    <path
       id="path73642"
       style="font-style:normal;font-weight:300;font-size:160.66667175px;line-height:1;font-family:'Montserrat Light Alt1';font-variant-ligatures:none;text-align:left;dominant-baseline:middle;text-anchor:middle"
       d="m 579.28293,198.066 h -7.712 v 18.95867 c -3.374,-6.10534 -8.194,-10.92534 -14.29933,-14.46 -6.266,-3.374 -13.17467,-5.14134 -20.88667,-5.14134 -7.87267,0 -14.942,1.76734 -21.36867,5.14134 -6.42666,3.53466 -11.40733,8.35466 -14.942,14.46 -3.69533,6.266 -5.46266,13.33533 -5.46266,21.04733 0,7.87267 1.76733,14.942 5.46266,21.04733 3.53467,6.266 8.51534,11.086 14.942,14.62067 6.42667,3.53467 13.496,5.14134 21.36867,5.14134 7.55133,0 14.46,-1.60667 20.56533,-4.98067 6.10534,-3.21334 10.76467,-8.03334 14.29934,-14.13867 v 14.13867 c 0,11.24667 -2.73133,19.44067 -8.03333,24.74267 -5.46267,5.302 -13.65667,7.87266 -24.74267,7.87266 -6.748,0 -13.014,-0.964 -18.798,-3.21333 -5.94467,-2.08867 -10.92534,-5.14133 -15.10267,-8.99733 l -4.338,6.10533 c 4.17733,4.17733 9.64,7.55133 16.54867,9.80067 6.748,2.41 14.13866,3.53466 21.85066,3.53466 13.496,0 23.77867,-3.21333 30.52667,-9.96133 6.748,-6.58733 10.122,-16.87 10.122,-30.848 z m -24.582,69.408 c -5.302,2.892 -11.24667,4.17733 -17.67333,4.17733 -6.58734,0 -12.532,-1.28533 -17.67334,-4.17733 -5.14133,-2.892 -9.31866,-6.748 -12.21066,-11.88933 -2.892,-5.14134 -4.338,-10.92534 -4.338,-17.51267 0,-6.42667 1.446,-12.21067 4.338,-17.352 2.892,-4.98067 7.06933,-8.83667 12.21066,-11.72867 5.14134,-2.892 11.086,-4.338 17.67334,-4.338 6.42666,0 12.37133,1.446 17.67333,4.338 5.14133,2.892 9.31867,6.748 12.21067,11.72867 2.892,5.14133 4.49867,10.92533 4.49867,17.352 0,6.58733 -1.60667,12.37133 -4.49867,17.51267 -2.892,5.14133 -7.06934,8.99733 -12.21067,11.88933 z" />
    <path
       id="path73644"
       style="font-style:normal;font-weight:300;font-size:160.66667175px;line-height:1;font-family:'Montserrat Light Alt1';font-variant-ligatures:none;text-align:left;dominant-baseline:middle;text-anchor:middle"
       d="m 679.15985,206.58133 c -6.10533,-6.10533 -14.46,-9.158 -24.90333,-9.158 -7.712,0 -14.46,1.60667 -20.08333,4.82 -5.784,3.21334 -9.96134,7.55134 -12.85334,13.33534 v -52.85934 h -8.03333 V 281.934 h 8.03333 v -44.66533 c 0,-9.96134 2.73134,-17.834 8.51534,-23.77867 5.62333,-5.784 13.33533,-8.83667 23.29666,-8.83667 8.51534,0 15.10267,2.57067 19.92267,7.39067 4.82,4.98067 7.23,12.21067 7.23,21.52933 V 281.934 h 8.03333 v -49.00333 c 0,-11.40734 -3.05266,-20.244 -9.158,-26.34934 z" />
    <path
       id="path73646"
       style="font-style:normal;font-weight:300;font-size:160.66667175px;line-height:1;font-family:'Montserrat Light Alt1';font-variant-ligatures:none;text-align:left;dominant-baseline:middle;text-anchor:middle"
       d="m 763.16091,276.632 -3.374,-5.62333 c -3.53467,3.21333 -7.87267,4.65933 -13.01401,4.65933 -5.14133,0 -9.158,-1.28533 -11.72866,-4.17733 -2.57067,-2.892 -3.856,-7.06934 -3.856,-12.532 v -53.984 h 26.67067 V 198.066 H 731.18824 V 179.75 h -8.03334 v 18.316 h -15.424 v 6.90867 h 15.424 V 259.762 c 0,7.23 1.928,12.85333 5.94467,16.87 3.856,4.01667 9.47933,5.94467 16.87,5.94467 3.21333,0 6.42667,-0.482 9.47933,-1.446 3.05267,-0.964 5.62334,-2.57067 7.71201,-4.49867 z" />
  </g>
</svg>