<?xml version="1.0" standalone="no"?>
<!DOCTYPE svg PUBLIC "-//W3C//DTD SVG 20010904//EN"
 "http://www.w3.org/TR/2001/REC-SVG-20010904/DTD/svg10.dtd">
<svg version="1.0" xmlns="http://www.w3.org/2000/svg"
 width="260.000000pt" height="260.000000pt" viewBox="0 0 260.000000 260.000000"
 preserveAspectRatio="xMidYMid meet">
<metadata>
Created by potrace 1.14, written by Peter Selinger 2001-2017
</metadata>
<g transform="translate(0.000000,260.000000) scale(0.100000,-0.100000)"
fill="#000000" stroke="none">
<path d="M1222 2445 c-34 -68 -62 -128 -62 -131 1 -4 -2 -10 -7 -13 -7 -5
-115 -216 -118 -231 0 -3 -83 -171 -184 -375 -100 -203 -192 -390 -204 -415
-11 -25 -26 -48 -31 -52 -6 -4 -8 -8 -4 -8 3 0 -38 -90 -93 -200 -54 -110 -99
-204 -99 -209 0 -5 -5 -11 -11 -13 -5 -2 -11 -10 -13 -18 -1 -8 -66 -144 -144
-302 -78 -158 -142 -290 -142 -293 0 -3 35 -5 77 -3 l77 3 57 113 c31 62 57
115 58 117 5 18 68 141 74 143 4 2 7 9 7 16 0 18 24 66 33 66 4 0 7 7 7 16 0
9 9 29 21 45 11 16 18 29 15 29 -2 0 20 49 50 110 30 60 54 113 54 116 -1 4 2
10 7 13 4 3 23 38 41 76 18 39 38 77 43 85 9 15 31 61 34 70 0 3 7 16 15 30 8
14 15 27 15 30 0 3 29 64 64 135 36 72 63 132 62 134 -2 2 1 7 6 10 5 3 17 24
28 46 10 22 91 188 180 369 l163 329 70 -139 c166 -329 280 -553 288 -565 5
-8 9 -16 9 -19 3 -14 61 -125 68 -128 4 -2 5 -8 1 -13 -3 -5 0 -9 5 -9 6 0 11
-8 11 -18 0 -10 4 -22 9 -27 15 -16 71 -126 71 -140 0 -7 3 -15 8 -17 4 -1 56
-100 116 -218 262 -518 379 -746 386 -755 5 -5 9 -13 9 -18 2 -31 19 -38 94
-35 l77 3 -108 215 c-59 118 -109 217 -112 220 -3 3 -61 118 -130 255 -68 138
-130 257 -138 267 -7 9 -15 22 -16 30 -1 7 -7 22 -13 33 -19 36 -277 542 -443
870 -150 297 -258 495 -270 495 -3 0 -33 -56 -68 -125z"/>
</g>
</svg>
